<svg width="24" height="24" viewBox="0 0 24 24" fill="none" xmlns="http://www.w3.org/2000/svg">
<path d="M10.7398 0.768037C11.2719 -0.256012 12.7281 -0.256012 13.2602 0.768037L13.553 1.33143C13.9492 2.09407 14.9198 2.33483 15.6228 1.84489L16.1422 1.48295C17.0861 0.825069 18.3756 1.5062 18.3739 2.66182L18.373 3.2976C18.3717 4.15822 19.1199 4.82536 19.9686 4.72036L20.5956 4.64278C21.7353 4.50178 22.5625 5.70801 22.0274 6.73046L21.733 7.29298C21.3345 8.05442 21.689 8.9951 22.4889 9.29909L23.0799 9.52365C24.1541 9.93184 24.3297 11.3868 23.3837 12.0419L22.8633 12.4023C22.1589 12.8901 22.0384 13.8888 22.6064 14.5322L23.026 15.0074C23.7886 15.8713 23.2722 17.2417 22.1322 17.3793L21.505 17.455C20.656 17.5575 20.0881 18.3854 20.294 19.2207L20.4461 19.8378C20.7225 20.9594 19.6325 21.9314 18.5595 21.52L17.9692 21.2936C17.1701 20.9873 16.285 21.4548 16.0816 22.2907L15.9313 22.9082C15.6582 24.0307 14.2442 24.3814 13.4841 23.5153L13.0659 23.0388C12.4998 22.3938 11.5002 22.3938 10.9341 23.0388L10.5159 23.5153C9.75578 24.3814 8.34182 24.0307 8.0687 22.9082L7.91843 22.2907C7.71503 21.4548 6.82991 20.9873 6.03083 21.2936L5.44051 21.52C4.36752 21.9314 3.27748 20.9594 3.55392 19.8378L3.70601 19.2207C3.91188 18.3854 3.34404 17.5575 2.49502 17.455L1.8678 17.3793C0.727756 17.2417 0.211353 15.8713 0.974036 15.0074L1.39364 14.5322C1.96163 13.8888 1.84114 12.8901 1.13668 12.4023L0.616263 12.0419C-0.329667 11.3868 -0.154132 9.93184 0.920071 9.52365L1.51106 9.29909C2.31104 8.9951 2.66551 8.05442 2.267 7.29298L1.9726 6.73046C1.43749 5.70801 2.26475 4.50178 3.40438 4.64278L4.03137 4.72036C4.88008 4.82536 5.6283 4.15822 5.62703 3.2976L5.62609 2.66182C5.62439 1.5062 6.91386 0.825069 7.85785 1.48295L8.3772 1.84489C9.08021 2.33483 10.0508 2.09407 10.447 1.33143L10.7398 0.768037Z" fill="#00A451"/>
</svg>
